<mxfile host="drawio.apps.chilhome.com" modified="2024-07-08T03:55:17.492Z" agent="Mozilla/5.0 (Macintosh; Intel Mac OS X 10_15_7) AppleWebKit/537.36 (KHTML, like Gecko) Chrome/126.0.0.0 Safari/537.36" etag="QrMi3DPU7fVsb7-o93Ba" version="24.4.8" type="device">
  <diagram name="Page-1" id="FURyPZnuudoIKSPpISGh">
    <mxGraphModel dx="2074" dy="710" grid="1" gridSize="10" guides="1" tooltips="1" connect="1" arrows="1" fold="1" page="1" pageScale="1" pageWidth="850" pageHeight="1100" math="0" shadow="0">
      <root>
        <mxCell id="0" />
        <mxCell id="1" parent="0" />
        <mxCell id="-8oyuEoW2l6kJnYILFhX-44" value="" style="rounded=0;whiteSpace=wrap;html=1;fillColor=none;" vertex="1" parent="1">
          <mxGeometry x="20" width="740" height="640" as="geometry" />
        </mxCell>
        <mxCell id="-8oyuEoW2l6kJnYILFhX-28" style="edgeStyle=orthogonalEdgeStyle;rounded=0;orthogonalLoop=1;jettySize=auto;html=1;exitX=1;exitY=0.5;exitDx=0;exitDy=0;entryX=0;entryY=0.5;entryDx=0;entryDy=0;" edge="1" parent="1" source="-8oyuEoW2l6kJnYILFhX-2" target="-8oyuEoW2l6kJnYILFhX-3">
          <mxGeometry relative="1" as="geometry" />
        </mxCell>
        <mxCell id="-8oyuEoW2l6kJnYILFhX-51" style="edgeStyle=orthogonalEdgeStyle;rounded=0;orthogonalLoop=1;jettySize=auto;html=1;exitX=0.5;exitY=1;exitDx=0;exitDy=0;entryX=0;entryY=0.75;entryDx=0;entryDy=0;" edge="1" parent="1" source="-8oyuEoW2l6kJnYILFhX-2" target="-8oyuEoW2l6kJnYILFhX-8">
          <mxGeometry relative="1" as="geometry" />
        </mxCell>
        <mxCell id="-8oyuEoW2l6kJnYILFhX-2" value="Podcast Listening Application (PWA)" style="rounded=1;whiteSpace=wrap;html=1;fillColor=#fff2cc;strokeColor=#d6b656;" vertex="1" parent="1">
          <mxGeometry x="60" y="185" width="120" height="60" as="geometry" />
        </mxCell>
        <mxCell id="-8oyuEoW2l6kJnYILFhX-6" value="Podcast Hosting System" style="rounded=1;whiteSpace=wrap;html=1;fillColor=#f8cecc;strokeColor=#b85450;" vertex="1" parent="1">
          <mxGeometry x="397" y="190" width="120" height="60" as="geometry" />
        </mxCell>
        <mxCell id="-8oyuEoW2l6kJnYILFhX-7" value="PodcastIndex API" style="rounded=1;whiteSpace=wrap;html=1;fillColor=#e1d5e7;strokeColor=#9673a6;" vertex="1" parent="1">
          <mxGeometry x="520" y="320" width="90" height="60" as="geometry" />
        </mxCell>
        <mxCell id="-8oyuEoW2l6kJnYILFhX-8" value="getalby.com Wallet" style="rounded=1;whiteSpace=wrap;html=1;fillColor=#e1d5e7;strokeColor=#9673a6;" vertex="1" parent="1">
          <mxGeometry x="520" y="540" width="90" height="60" as="geometry" />
        </mxCell>
        <mxCell id="-8oyuEoW2l6kJnYILFhX-9" value="Livewire Podping Websocket" style="rounded=1;whiteSpace=wrap;html=1;fillColor=#e1d5e7;strokeColor=#9673a6;" vertex="1" parent="1">
          <mxGeometry x="520" y="436" width="90" height="60" as="geometry" />
        </mxCell>
        <mxCell id="-8oyuEoW2l6kJnYILFhX-12" value="&lt;font color=&quot;#99004d&quot;&gt;&lt;b&gt;Doesn&#39;t set CORS headers&lt;/b&gt;&lt;/font&gt;" style="text;html=1;align=left;verticalAlign=middle;whiteSpace=wrap;rounded=0;" vertex="1" parent="1">
          <mxGeometry x="551" y="195" width="180" height="40" as="geometry" />
        </mxCell>
        <mxCell id="-8oyuEoW2l6kJnYILFhX-13" value="&lt;font color=&quot;#99004d&quot;&gt;&lt;b&gt;Doesn&#39;t serve HTTPS&lt;/b&gt;&lt;/font&gt;" style="text;html=1;align=left;verticalAlign=middle;whiteSpace=wrap;rounded=0;" vertex="1" parent="1">
          <mxGeometry x="551" y="230" width="180" height="30" as="geometry" />
        </mxCell>
        <mxCell id="-8oyuEoW2l6kJnYILFhX-14" value="Podcast Hosting System" style="rounded=1;whiteSpace=wrap;html=1;fillColor=#f8cecc;strokeColor=#b85450;" vertex="1" parent="1">
          <mxGeometry x="402" y="200" width="120" height="60" as="geometry" />
        </mxCell>
        <mxCell id="-8oyuEoW2l6kJnYILFhX-15" value="Podcast Hosting Systems" style="rounded=1;whiteSpace=wrap;html=1;fillColor=#f8cecc;strokeColor=#b85450;" vertex="1" parent="1">
          <mxGeometry x="407" y="210" width="120" height="60" as="geometry" />
        </mxCell>
        <mxCell id="-8oyuEoW2l6kJnYILFhX-26" value="" style="group" vertex="1" connectable="0" parent="1">
          <mxGeometry x="397" y="40" width="340" height="80" as="geometry" />
        </mxCell>
        <mxCell id="-8oyuEoW2l6kJnYILFhX-3" value="Podcast Hosting System" style="rounded=1;whiteSpace=wrap;html=1;fillColor=#d5e8d4;strokeColor=#82b366;" vertex="1" parent="-8oyuEoW2l6kJnYILFhX-26">
          <mxGeometry width="120" height="60" as="geometry" />
        </mxCell>
        <mxCell id="-8oyuEoW2l6kJnYILFhX-4" value="Podcast Hosting System" style="rounded=1;whiteSpace=wrap;html=1;fillColor=#d5e8d4;strokeColor=#82b366;" vertex="1" parent="-8oyuEoW2l6kJnYILFhX-26">
          <mxGeometry x="5" y="10" width="120" height="60" as="geometry" />
        </mxCell>
        <mxCell id="-8oyuEoW2l6kJnYILFhX-5" value="Podcast Hosting Systems" style="rounded=1;whiteSpace=wrap;html=1;fillColor=#d5e8d4;strokeColor=#82b366;" vertex="1" parent="-8oyuEoW2l6kJnYILFhX-26">
          <mxGeometry x="10" y="20" width="120" height="60" as="geometry" />
        </mxCell>
        <mxCell id="-8oyuEoW2l6kJnYILFhX-10" value="&lt;font color=&quot;#006633&quot;&gt;&lt;b&gt;Sets permissive CORS headers on feeds, media, chapters, opml files&lt;/b&gt;&lt;/font&gt;" style="text;html=1;align=left;verticalAlign=middle;whiteSpace=wrap;rounded=0;" vertex="1" parent="-8oyuEoW2l6kJnYILFhX-26">
          <mxGeometry x="150" width="190" height="40" as="geometry" />
        </mxCell>
        <mxCell id="-8oyuEoW2l6kJnYILFhX-11" value="&lt;b&gt;&lt;font color=&quot;#006633&quot;&gt;Serves HTTPS&lt;/font&gt;&lt;/b&gt;" style="text;html=1;align=left;verticalAlign=middle;whiteSpace=wrap;rounded=0;" vertex="1" parent="-8oyuEoW2l6kJnYILFhX-26">
          <mxGeometry x="150" y="40" width="180" height="40" as="geometry" />
        </mxCell>
        <mxCell id="-8oyuEoW2l6kJnYILFhX-31" style="edgeStyle=orthogonalEdgeStyle;rounded=0;orthogonalLoop=1;jettySize=auto;html=1;exitX=0.88;exitY=0.25;exitDx=0;exitDy=0;exitPerimeter=0;entryX=0;entryY=0.5;entryDx=0;entryDy=0;startArrow=classic;startFill=1;" edge="1" parent="1" source="-8oyuEoW2l6kJnYILFhX-30" target="-8oyuEoW2l6kJnYILFhX-6">
          <mxGeometry relative="1" as="geometry" />
        </mxCell>
        <mxCell id="-8oyuEoW2l6kJnYILFhX-34" style="edgeStyle=orthogonalEdgeStyle;rounded=0;orthogonalLoop=1;jettySize=auto;html=1;exitX=0.875;exitY=0.5;exitDx=0;exitDy=0;exitPerimeter=0;entryX=0;entryY=0.5;entryDx=0;entryDy=0;startArrow=classic;startFill=1;" edge="1" parent="1" source="-8oyuEoW2l6kJnYILFhX-30" target="-8oyuEoW2l6kJnYILFhX-7">
          <mxGeometry relative="1" as="geometry" />
        </mxCell>
        <mxCell id="-8oyuEoW2l6kJnYILFhX-37" style="edgeStyle=orthogonalEdgeStyle;rounded=0;orthogonalLoop=1;jettySize=auto;html=1;exitX=0.55;exitY=0.95;exitDx=0;exitDy=0;exitPerimeter=0;entryX=0;entryY=0.5;entryDx=0;entryDy=0;startArrow=classic;startFill=1;" edge="1" parent="1" source="-8oyuEoW2l6kJnYILFhX-30" target="-8oyuEoW2l6kJnYILFhX-9">
          <mxGeometry relative="1" as="geometry">
            <Array as="points">
              <mxPoint x="296" y="466" />
            </Array>
          </mxGeometry>
        </mxCell>
        <mxCell id="-8oyuEoW2l6kJnYILFhX-39" style="edgeStyle=orthogonalEdgeStyle;rounded=0;orthogonalLoop=1;jettySize=auto;html=1;exitX=0.31;exitY=0.8;exitDx=0;exitDy=0;exitPerimeter=0;entryX=0;entryY=0.5;entryDx=0;entryDy=0;startArrow=classic;startFill=1;" edge="1" parent="1" source="-8oyuEoW2l6kJnYILFhX-30" target="-8oyuEoW2l6kJnYILFhX-8">
          <mxGeometry relative="1" as="geometry">
            <Array as="points">
              <mxPoint x="267" y="570" />
            </Array>
          </mxGeometry>
        </mxCell>
        <mxCell id="-8oyuEoW2l6kJnYILFhX-30" value="Umbilical" style="ellipse;shape=cloud;whiteSpace=wrap;html=1;fillColor=#dae8fc;strokeColor=#6c8ebf;fontColor=#000099;fontSize=15;fontStyle=1" vertex="1" parent="1">
          <mxGeometry x="230" y="260" width="120" height="80" as="geometry" />
        </mxCell>
        <mxCell id="-8oyuEoW2l6kJnYILFhX-32" value="proxy" style="text;html=1;align=center;verticalAlign=middle;whiteSpace=wrap;rounded=0;fontColor=#6600CC;fontStyle=1" vertex="1" parent="1">
          <mxGeometry x="320" y="230" width="60" height="30" as="geometry" />
        </mxCell>
        <mxCell id="-8oyuEoW2l6kJnYILFhX-33" style="edgeStyle=orthogonalEdgeStyle;rounded=0;orthogonalLoop=1;jettySize=auto;html=1;exitX=1;exitY=0.5;exitDx=0;exitDy=0;entryX=0.07;entryY=0.4;entryDx=0;entryDy=0;entryPerimeter=0;startArrow=classic;startFill=1;" edge="1" parent="1" source="-8oyuEoW2l6kJnYILFhX-2" target="-8oyuEoW2l6kJnYILFhX-30">
          <mxGeometry relative="1" as="geometry">
            <Array as="points">
              <mxPoint x="210" y="215" />
              <mxPoint x="210" y="292" />
            </Array>
          </mxGeometry>
        </mxCell>
        <mxCell id="-8oyuEoW2l6kJnYILFhX-35" value="" style="group;fontColor=#6600CC;" vertex="1" connectable="0" parent="1">
          <mxGeometry x="342" y="324" width="218" height="80" as="geometry" />
        </mxCell>
        <mxCell id="-8oyuEoW2l6kJnYILFhX-17" value="Podcast Search" style="text;html=1;align=left;verticalAlign=middle;whiteSpace=wrap;rounded=0;fontColor=#6600CC;fontStyle=1" vertex="1" parent="-8oyuEoW2l6kJnYILFhX-35">
          <mxGeometry x="-15" width="217.99999999999997" height="40" as="geometry" />
        </mxCell>
        <mxCell id="-8oyuEoW2l6kJnYILFhX-19" value="remoteItem lookups for boosting" style="text;html=1;align=left;verticalAlign=middle;whiteSpace=wrap;rounded=0;fontColor=#6600CC;fontStyle=1" vertex="1" parent="-8oyuEoW2l6kJnYILFhX-35">
          <mxGeometry x="-15" y="20" width="217.99999999999997" height="40" as="geometry" />
        </mxCell>
        <mxCell id="-8oyuEoW2l6kJnYILFhX-21" value="Podroll from feed" style="text;html=1;align=left;verticalAlign=middle;whiteSpace=wrap;rounded=0;fontColor=#6600CC;fontStyle=1" vertex="1" parent="-8oyuEoW2l6kJnYILFhX-35">
          <mxGeometry x="-15" y="40" width="217.99999999999997" height="40" as="geometry" />
        </mxCell>
        <mxCell id="-8oyuEoW2l6kJnYILFhX-38" value="" style="group" vertex="1" connectable="0" parent="1">
          <mxGeometry x="330" y="466" width="180" height="62" as="geometry" />
        </mxCell>
        <mxCell id="-8oyuEoW2l6kJnYILFhX-24" value="Online podping notifications" style="text;html=1;align=left;verticalAlign=middle;whiteSpace=wrap;rounded=0;fontColor=#6600CC;fontStyle=1" vertex="1" parent="-8oyuEoW2l6kJnYILFhX-38">
          <mxGeometry width="180" height="40" as="geometry" />
        </mxCell>
        <mxCell id="-8oyuEoW2l6kJnYILFhX-25" value="Offline podping notifications" style="text;html=1;align=left;verticalAlign=middle;whiteSpace=wrap;rounded=0;fontColor=#6600CC;fontStyle=1" vertex="1" parent="-8oyuEoW2l6kJnYILFhX-38">
          <mxGeometry y="22" width="180" height="40" as="geometry" />
        </mxCell>
        <mxCell id="-8oyuEoW2l6kJnYILFhX-41" value="" style="group" vertex="1" connectable="0" parent="1">
          <mxGeometry x="330" y="550" width="180" height="34" as="geometry" />
        </mxCell>
        <mxCell id="-8oyuEoW2l6kJnYILFhX-42" value="Login (Oauth)" style="text;html=1;align=left;verticalAlign=middle;whiteSpace=wrap;rounded=0;fontColor=#6600CC;fontStyle=1" vertex="1" parent="-8oyuEoW2l6kJnYILFhX-41">
          <mxGeometry x="1" width="180" height="21.93548387096774" as="geometry" />
        </mxCell>
        <mxCell id="-8oyuEoW2l6kJnYILFhX-47" value="" style="group" vertex="1" connectable="0" parent="1">
          <mxGeometry x="40" y="380" width="180" height="34" as="geometry" />
        </mxCell>
        <mxCell id="-8oyuEoW2l6kJnYILFhX-48" value="Boost" style="text;html=1;align=left;verticalAlign=middle;whiteSpace=wrap;rounded=0;fontColor=#6600CC;fontStyle=1" vertex="1" parent="-8oyuEoW2l6kJnYILFhX-47">
          <mxGeometry x="33" y="10" width="39" height="21.94" as="geometry" />
        </mxCell>
      </root>
    </mxGraphModel>
  </diagram>
</mxfile>
